<mxfile host="app.diagrams.net" modified="2024-05-20T11:39:32.607Z" agent="Mozilla/5.0 (X11; CrOS x86_64 14816.131.0) AppleWebKit/537.36 (KHTML, like Gecko) Chrome/103.0.0.0 Safari/537.36" version="24.4.4" etag="UIJXVeg6Y--LBE1DDsWB" type="github">
  <diagram name="PÃ¡gina-1" id="VSbhb06O2-q0DgOhx1TD">
    <mxGraphModel>
      <root>
        <mxCell id="0" />
        <mxCell id="1" parent="0" />
      </root>
    </mxGraphModel>
  </diagram>
</mxfile>
